<svg width="502" height="502" viewBox="0 0 502 502" fill="none" xmlns="http://www.w3.org/2000/svg">
<path d="M501.43 83.79V417.63C501.43 463.9 463.93 501.42 417.64 501.42H83.79C37.51 501.42 0 463.92 0 417.63V83.79C0 37.52 37.52 0 83.79 0H417.63C463.92 0 501.42 37.5 501.42 83.79H501.43ZM410.23 117.65C410.23 103.04 398.38 91.2 383.78 91.2H117.63C103.02 91.2 91.18 103.04 91.18 117.65V383.84C91.18 398.45 103.02 410.29 117.63 410.29H383.8C398.41 410.29 410.25 398.44 410.25 383.84V117.65H410.23ZM182.32 197.6C182.32 189.17 189.11 182.34 197.49 182.34H303.89C312.28 182.34 319.06 189.18 319.06 197.6V303.84C319.06 312.27 312.31 319.1 303.89 319.1H197.49C189.1 319.1 182.32 312.26 182.32 303.84V197.6Z" fill="black"/>
</svg>
